<svg id="Layer_1" data-name="Layer 1" xmlns="http://www.w3.org/2000/svg" viewBox="0 0 478.7 304.672" width="478.7px" height="304.672px"><defs><style>.cls-1{fill:#fff;}</style></defs><title>Artboard 1</title><path class="cls-1" d="M260.21,277.055v-1.994h.73v-.307H259.1v.307h.723v1.994Zm212.5-99.8h-2.657a69.04,69.04,0,0,1-8.461-.657c-4.963-.656-6.124-3.65-6.627-8.124-.657-7.132-.657-20.22-.657-36.3V103c0-25.2,0-29.841.336-35.156.321-5.8,1.649-8.613,6.123-9.437a27.65,27.65,0,0,1,4.979-.5H468.4V54.93H419.165v2.978h2.642a23.92,23.92,0,0,1,5.972.656c3.649.84,5.3,3.65,5.635,9.285.336,5.315.336,9.958.336,35.156v29.17c0,16.081,0,29.169-.825,36.133-.5,4.81-1.5,7.636-4.811,8.292a26.892,26.892,0,0,1-5.971.657h-2.657v2.993h53.222Zm-208.737,99.8v-2.3h-.587L262.7,276.5l-.7-1.747h-.592v2.3h.384v-1.923h.014l.763,1.921h.24l.764-1.921h.011v1.921ZM368.58,162.184c-7.621,7.788-24.863,18.066-55.529,18.066H253.537v-2.993h2.642a26.892,26.892,0,0,0,5.971-.657c3.314-.656,4.139-4.306,4.811-9.117.825-6.964.825-20.052.825-35.308V103c0-25.2,0-29.841-.336-35.156-.321-5.635-1.65-8.277-7.117-9.437a33.773,33.773,0,0,0-6.475-.5h-2.81V54.93h53.039c20.724,0,48.412,0,66.478,18.891,8.293,8.613,16.081,22.373,16.081,42.1C386.646,136.817,377.865,152.73,368.58,162.184Zm-4.139-41.448c0-21.06-8.8-34.652-15.913-41.448-15.257-14.585-34.163-16.57-47.083-16.57-3.314,0-9.454.489-10.782,1.161-1.5.657-1.985,1.481-1.985,3.314-.169,5.635-.169,20.052-.169,33.155v20.877c0,17.577.169,30.345.337,33.491.168,4.154.389,10.339,1.817,12.6,2.262,3.581,8.628,6.628,21.717,6.628,16.905,0,28.176-3.314,38.133-11.927,10.6-9.114,13.928-24.207,13.928-41.281Zm-125.77,177.95H221.724l3.737-5.983h11.447l3.731-5.973h-24l-3.732,5.973h5.49l-7.465,11.969h31.032l11.65-18.629,4.167,6.66h-3.453l-3.736,5.985h10.92l3.731,5.984H272.3l-18.69-29.915ZM19.36,185.028a27.756,27.756,0,0,1-4.226,3.7,44.447,44.447,0,0,1-7.959,4.46L7.8,195.31a40.876,40.876,0,0,0,12.785-4.884A86.36,86.36,0,0,0,32.068,182c.183-.154.352-.306.535-.458,8.6-7.5,13.806-15.41,16.3-22.649,3.329-9.285,3.986-19.9,3.986-29.352,0-8.293-.5-16.249-.5-23.366V83.2c0-9.408,0-10.034.336-15.348.336-5.8,1.664-8.614,6.139-9.438a24.529,24.529,0,0,1,4.811-.5h2.978V54.93H15.086v2.978h2.825a33.618,33.618,0,0,1,6.46.5c5.468,1.16,6.8,3.8,7.132,9.438.29,4.749.321,6.337.321,15.348v39.89c0,27.732.12,43.974-7.7,56.058A36.522,36.522,0,0,1,19.36,185.028ZM0,285.561H199.4l6.735-10.812H6.75Zm220.382-4.82H245l3.741-5.986h-24.6ZM206.03,154.975h-3.711l-.031.26c-.091.458-.336,1.726-.427,2.306-1.161,6.8-3.162,10.278-7.468,12.263s-18.907,1.986-23.214,1.986c-16.906,0-19.563-2.49-19.9-13.928-.168-4.795,0-20.052,0-25.687v-13.1c0-.992.168-1.649.993-1.649,3.986,0,28.039.168,31.185.489,6.124.672,8.445,3.161,9.285,6.475a45.17,45.17,0,0,1,.657,5.971v1.359l-.015.138h2.9l2.581-28.039h-2.6s-.154,1.219-2.321,3.07c-1.528,1.206-3.864,1.633-7.346,1.908-3.818.336-30.513.336-34.163.336-.993,0-1.161-.656-1.161-1.817V65.36c0-1.16.336-1.649,1.161-1.649,3.314,0,28.36.382,31.185.657,8.033.779,9.942,2.993,11.1,5.971a17.872,17.872,0,0,1,.993,5.971v2.322h3.024v-.016h.015l2.322-25.656H198.5l-1.955,2H113.651v2.948h2.825a33.618,33.618,0,0,1,6.46.5c5.467,1.16,6.8,3.8,7.132,9.438.336,5.314.336,9.957.336,35.155v29.17c0,15.256,0,28.344-.84,35.308-.657,4.811-1.482,8.461-4.811,9.117a26.694,26.694,0,0,1-5.956.657H116.14v3.016h86.589Zm66.513,119.774,6.735,10.812h199.4l-6.75-10.812Zm194.78-59.637v-4.539h-1.646v-.7h4.189v.7H468.2v4.539Zm9.446,0v-5.234h-1.338l-1.549,3.978-1.59-3.978h-1.354v5.234h.875v-4.375h.031l1.739,4.375h.546l1.739-4.375h.026v4.375ZM384.2.379h.014l.764,1.921h.239l.764-1.921h.011V2.3h.385V0h-.588l-.68,1.747L384.409,0h-.595V2.3h.384ZM382.225,2.3h.386V.3h.73V0H381.5V.3h.723Zm-10.234,17.43c.031.443.061.9.061,1.374a12.114,12.114,0,0,1-3.436,8.522c-.336.351-.687.626-1.023.916H471.961L478.7,19.733Zm-271,.015H.015l3.36,5.376v.015l3.36,5.406h99.236a9.6,9.6,0,0,0,6.9-2.779,8.7,8.7,0,0,0,1.726-2.474,9.739,9.739,0,0,0,.931-4.169,11.4,11.4,0,0,0-.259-2.429,9.766,9.766,0,0,0-2.215-4.169c-.152-.183-.412-.458-.717-.794-1.039-1.13-2.7-2.871-3.146-3.314a.341.341,0,0,1-.092-.214.329.329,0,0,1,.183-.3h14.3V30.545h11V9.959h13.348V0h-42.99a11.564,11.564,0,0,0-5.91,2.015A8.963,8.963,0,0,0,95.39,9a10.334,10.334,0,0,0,1.268,4.734,8.83,8.83,0,0,0,.84,1.329c.809.992,2.535,2.794,3.344,3.634.259.275.428.443.428.443a.364.364,0,0,1,.106.245.375.375,0,0,1-.383.365Zm74.845-1.054L169.98,0H152.867s-3.1,10.106-5.726,18.691c-1.934,6.321-3.619,11.824-3.619,11.849l11.444-.016,1.388-4.413h10.519l1.421,4.429h11.254Zm-16.765-.868,2.644-8.477,2.636,8.477ZM363.192,9.894h15.27V0H358.831a11.617,11.617,0,0,0-5.916,2.016,8.956,8.956,0,0,0-3.636,6.966,10.838,10.838,0,0,0,2.1,6.073c1.082,1.314,3.784,4.049,3.784,4.049a.357.357,0,0,1-.272.612H339.752c-1.835,0-1.967-.736-1.967-.827,0-.181.223-.3.223-.3a17.188,17.188,0,0,0,2.1-1.4,8.721,8.721,0,0,0,3.355-7.148A9.111,9.111,0,0,0,340.132,2.7,12.152,12.152,0,0,0,333.166,0H311.591v30.54h12.2v-8.75l6.486,6.445c2.231,2.214,5.908,2.3,5.908,2.3h23.674a9.588,9.588,0,0,0,6.908-2.776,9.442,9.442,0,0,0,2.652-6.66,9.334,9.334,0,0,0-2.47-6.553c-.678-.793-3.314-3.553-3.851-4.139a.241.241,0,0,1-.1-.212.325.325,0,0,1,.194-.309Zm-32.342,2.6h-6.94V8.646h6.37a1.992,1.992,0,0,1,2.165,1.8c0,.06.008.121.008.182a1.865,1.865,0,0,1-1.6,1.868ZM249.065,30.54,252.746,18.8l3.58,11.736h10.457S276.183.03,276.183,0h-11.72s-2.515,8.306-2.515,8.31L259.327,0h-12.8l-2.339,8.31L241.678,0h-12.53l9.557,30.539ZM298.536,0H281.415s-9.346,30.482-9.346,30.54h11.436l1.405-4.429H295.4l1.438,4.429h11.271ZM287.629,17.826l2.627-8.477,2.644,8.477Zm-77.962,1.909c-1.834-.016-1.958-.752-1.958-.843a.253.253,0,0,1,.107-.2.549.549,0,0,1,.124-.107,18.2,18.2,0,0,0,2.107-1.405,8.734,8.734,0,0,0,3.347-7.148,9.164,9.164,0,0,0-3.33-7.329A12.321,12.321,0,0,0,203.1,0H181.507l.016,18.691V30.543h12.213v-8.75l6.5,6.445c2.214,2.231,5.891,2.3,5.891,2.3h18.485V19.735ZM200.793,12.5h-6.917l-.016-3.851h6.371a1.978,1.978,0,0,1,2.141,1.8c0,.061.007.122.007.184A1.854,1.854,0,0,1,200.793,12.5Zm76.8,196.6c-16.039,0-22.082,11.818-22.082,20.963,0,9.463,6.2,20.957,21.55,20.957,13.58,0,22.137-9.677,22.137-21.923S290.913,209.1,277.6,209.1Zm1.713,39.247c-10.264,0-16.412-8.821-16.412-19.942,0-13.316,7-16.736,13.152-16.736,8.765,0,15.665,7.432,15.665,19.409,0,15.456-8.659,17.273-12.4,17.273ZM386.09,215.93c-5.83-6.1-14.767-6.1-21.452-6.1H347.525v.961h.906a10.784,10.784,0,0,1,2.092.165c1.761.373,2.189,1.229,2.293,3.046.11,1.713.11,3.211.11,11.341v9.414c0,4.924,0,9.145-.269,11.4-.214,1.547-.483,2.728-1.547,2.942a9.047,9.047,0,0,1-1.927.208h-.857v.967h19.208c9.891,0,15.457-3.316,17.916-5.83a21.245,21.245,0,0,0,5.83-14.925,19.1,19.1,0,0,0-5.187-13.585Zm-6.472,28.456c-3.211,2.783-6.851,3.848-12.307,3.848-4.221,0-6.313-1.12-7-2.135-.428-.587-.533-2.728-.588-4.068-.055-1.015-.11-5.132-.11-10.809v-6.735c0-4.226,0-8.881.055-10.7a.97.97,0,0,1,.643-1.071,14.3,14.3,0,0,1,3.474-.373c4.172,0,10.27.643,15.195,5.347,2.3,2.2,5.138,6.581,5.138,13.377,0,5.512-1.078,10.381-4.5,13.323Zm-291.539-1.3c0,.321,0,.537-.038,1.313,0,.319-.1,1.423-.161,1.989a4.333,4.333,0,0,1-.9,2.614,1.748,1.748,0,0,1-.745.321,8.426,8.426,0,0,1-1.854.169H83.4v.963h27.931l1.1-8.149h-1.208s-.107.627-.153.826c-.367,2.186-1.009,3.317-2.4,3.959-1.147.535-4.556.627-6.5.642h-.994a21.573,21.573,0,0,1-2.919-.168c-2.4-.367-3.288-1.3-3.41-3.057-.168-2.553-.122-5.641-.122-9.555v-9.361c0-8.163,0-9.677.107-11.389A7.4,7.4,0,0,1,95,212.916a2.364,2.364,0,0,1,2.141-1.774,10.966,10.966,0,0,1,2.094-.168h.52v-.963H83.11v.963h.52a10.977,10.977,0,0,1,2.095.168c1.773.382,2.2,1.223,2.308,3.058.077,1.131.091,2.186.091,5.167.018,1.759.016,3.335.016,6.222v9.361C88.14,238.038,88.14,240.851,88.079,243.083Zm-8.154,6.231a14.182,14.182,0,0,1-2.416-.214c-1.224-.275-2.881-1.028-5.071-5.823-3.689-8.136-12.889-29.949-14.271-32.885-.581-1.242-.924-1.554-1.45-1.554-.581,0-.923.422-1.615,1.982L40.648,244.39c-1.15,2.679-2.239,4.5-4.887,4.814-.312.031-.692.092-1.205.11H33.271v.961h14.98v-.961h-1.81c-1.707-.03-2.221-.722-2.221-1.67a9.818,9.818,0,0,1,.875-3.254l3.107-7.646c.117-.318.233-.422.514-.422h12.84a.56.56,0,0,1,.575.361l4.612,11.347a.891.891,0,0,1-.317,1.221.779.779,0,0,1-.13.063h-.99v.961H80.665v-.961ZM60.467,233.643h-10.6c-.232,0-.293-.153-.232-.367l5.3-13.164c.049-.214.165-.471.349-.471.159,0,.226.257.275.471l5.187,13.212C60.816,233.49,60.748,233.643,60.467,233.643ZM19.851,212.668c1.07,0,9.158.122,10.06.214,2.6.245,3.21.963,3.592,1.927a5.982,5.982,0,0,1,.321,1.926v.749H34.8l.749-8.286h-.826l-.642.642H7.33v.948h.9a11.029,11.029,0,0,1,2.1.168c1.758.382,2.186,1.223,2.293,3.042.107,1.728.107,3.226.107,11.359v9.418c0,4.922,0,9.142-.26,11.389-.214,1.544-.489,2.722-1.559,2.935a8.677,8.677,0,0,1-1.927.215H8.125v.963l15.915-.016V249.3h-.856a8.938,8.938,0,0,1-1.942-.214c-1.07-.214-1.33-1.391-1.559-2.95a43.394,43.394,0,0,1-.229-4.4v-.306c.015-3.211.015-5.947.015-6.65v-4.235c0-.321.061-.535.321-.535,1.284,0,5.993.061,7.017.168,1.972.214,2.722,1.024,3,2.094a16.411,16.411,0,0,1,.214,1.927v.474h.932l.841-9.051H30.95a2.528,2.528,0,0,1-.734.963,4.25,4.25,0,0,1-2.4.642c-1.223.107-6.788.107-7.965.107-.321,0-.382-.214-.382-.58V213.2C19.469,212.821,19.576,212.668,19.851,212.668Zm201.738,37.074c.6.581,1.238,1.177,1.819,1.177.489,0,.7-.489.7-1.667l.581-33.74c.061-2.981.507-4.056,1.988-4.541a7.088,7.088,0,0,1,1.742-.168h1.07v-.963h-14.8v.963h1.094a8.637,8.637,0,0,1,2.819.337c1.269.535,1.758,1.544,1.8,4.8l.536,24.017h-.261c-.917-.856-8.133-8.561-11.756-12.2-7.812-7.752-15.945-16.466-16.588-17.154-.9-.963-1.391-1.666-1.971-1.666-.536,0-.689.749-.689,1.819l-.489,31.662c-.045,4.647-.26,6.191-1.651,6.619a8.36,8.36,0,0,1-1.773.26c-.23.016-.443.016-.642.016h-.857v.963h14.8v-.963h-.886a8.494,8.494,0,0,1-2.783-.383c-1.07-.367-1.773-1.758-1.88-5.931l-.581-22.458h.153c.963,1.024,6.91,7.705,12.735,13.468C211.376,239.529,218.225,246.531,221.589,249.742ZM120.968,242.9c0,.321,0,.537-.037,1.313,0,.32-.1,1.424-.162,1.989a4.328,4.328,0,0,1-.9,2.615,1.759,1.759,0,0,1-.745.32,8.366,8.366,0,0,1-1.854.169h-.978v.963h27.931l1.1-8.149h-1.208s-.107.627-.153.826c-.367,2.186-1.009,3.317-2.4,3.96-1.146.535-4.556.626-6.5.642h-.994a21.589,21.589,0,0,1-2.92-.169c-2.4-.367-3.287-1.3-3.409-3.057-.168-2.553-.123-5.641-.123-9.555v-9.357c0-8.163,0-9.677.108-11.389a7.213,7.213,0,0,1,.168-1.284,2.364,2.364,0,0,1,2.14-1.774,10.966,10.966,0,0,1,2.094-.168h.52v-.963H116v.963h.519a10.977,10.977,0,0,1,2.095.168c1.773.383,2.2,1.223,2.309,3.058.076,1.131.091,2.186.091,5.167.015,1.5.015,3.486.015,6.222v9.361C121.029,237.862,121.029,240.675,120.968,242.9Zm32.846,3.243c-.211,1.552-.478,2.73-1.552,2.942a8.628,8.628,0,0,1-1.922.211h-.857v.974h27.939l1.065-8.163h-1.2l-.01.084c-.03.148-.109.557-.138.744-.375,2.193-1.02,3.316-2.41,3.957s-6.1.64-7.49.64c-5.455,0-6.312-.8-6.421-4.494-.054-1.547,0-6.469,0-8.288v-4.228c0-.32.055-.532.321-.532,1.286,0,9.047.054,10.062.158,1.976.217,2.725,1.02,3,2.089a14.5,14.5,0,0,1,.212,1.927v.483h.936l.833-9.047h-.838s-.05.393-.749.99a4.424,4.424,0,0,1-2.37.616c-1.232.108-9.845.108-11.023.108-.32,0-.375-.211-.375-.586V213.2c0-.374.109-.532.375-.532,1.069,0,9.151.123,10.062.212,2.592.251,3.208.966,3.582,1.926a5.744,5.744,0,0,1,.321,1.927v.749h.975l.749-8.278h-.832l-.631.645H148.68v.951h.911a10.869,10.869,0,0,1,2.085.163c1.764.374,2.193,1.227,2.3,3.045.108,1.715.108,3.213.108,11.344v9.411c0,4.914,0,9.137-.27,11.384Zm244.945,0a3.977,3.977,0,0,1-.935,2.633,4.187,4.187,0,0,1-2.539.52h-.858v.974h27.939l1.065-8.163h-1.2l-.01.084c-.03.148-.109.557-.138.744-.375,2.193-1.02,3.316-2.41,3.957s-6.1.64-7.49.64c-5.455,0-6.312-.8-6.42-4.494-.055-1.547,0-6.469,0-8.288v-4.228c0-.32.054-.532.32-.532,1.286,0,9.047.054,10.062.158,1.976.217,2.725,1.02,3,2.089a14.5,14.5,0,0,1,.212,1.927v.483h.936l.833-9.047h-.838s-.05.393-.749.99a4.424,4.424,0,0,1-2.37.616c-1.232.108-9.845.108-11.023.108-.32,0-.374-.211-.374-.586V213.2c0-.374.108-.532.374-.532,1.069,0,9.151.123,10.062.212,2.592.251,3.208.966,3.582,1.926a5.744,5.744,0,0,1,.321,1.927v.749h.975l.754-8.283H421l-.631.645H393.624v.951h.912a10.865,10.865,0,0,1,2.084.163c1.764.374,2.193,1.227,2.3,3.045.109,1.715.109,3.213.109,11.344v9.411c0,4.919,0,9.142-.27,11.389Zm73.521,3.164a8.227,8.227,0,0,1-1.5-.171,7.316,7.316,0,0,1-1.192-.306,12.248,12.248,0,0,1-4.8-3.328c-.912-.966-1.89-2.067-2.918-3.272-2.477-2.924-4.783-5.879-8.159-10.112a16.226,16.226,0,0,0,3.261-2,12.544,12.544,0,0,0,4.791-10.627c-.092-2.885-1.093-5.795-3.534-7.5-2.908-2.027-6.969-2.08-10.361-2.162-.367-.018-.722-.018-1.089-.018H428.636v.948h.52s1.847.049,2.428.153c1.694.343,2.245,1.444,2.337,3.059.122,1.725.122,3.223.122,11.359v9.42c0,4.918,0,9.157-.275,11.4-.214,1.541-.471,2.722-1.56,2.936a7.649,7.649,0,0,1-1.211.2c-.263.012-.465.012-.71.012h-.856v.961h15.635V249.3h-.857a9.681,9.681,0,0,1-1.927-.214,1.437,1.437,0,0,1-1.033-.85,3.322,3.322,0,0,1-.141-.331,7.431,7.431,0,0,1-.379-1.755,54.987,54.987,0,0,1-.294-6.1v-6.1a.374.374,0,0,1,.311-.428.383.383,0,0,1,.117,0l6.588-.007a1.134,1.134,0,0,1,.961.367c.7.808,3.229,4.558,5.37,7.494,2.753,3.78,4.68,6.208,6.76,7.524.183.122.379.226.562.336,1.4.746,2.722,1.022,5.72,1.022h5.731V249.3Zm-22.425-19.087c-2.862,1.065-7.6.624-8.606.41a2.137,2.137,0,0,1-.324-.092c-.38-.153-.49-.367-.49-.966V213.328c0-.428.11-.642.49-.752a30.986,30.986,0,0,1,5.23-.2c2.168.075,4.95.407,6.824,1.551a5.974,5.974,0,0,1,2.6,4.469C456.264,223.309,454.913,228.348,449.855,230.223ZM346.29,249.314a8.227,8.227,0,0,1-1.5-.171,7.3,7.3,0,0,1-1.193-.306,12.248,12.248,0,0,1-4.8-3.328c-.911-.966-1.89-2.067-2.917-3.272-2.478-2.924-4.783-5.879-8.16-10.112a16.233,16.233,0,0,0,3.262-2,12.543,12.543,0,0,0,4.79-10.627c-.092-2.885-1.093-5.795-3.533-7.5-2.908-2.027-6.97-2.08-10.361-2.162-.367-.018-.722-.018-1.089-.018H302.645v.948h.52s1.847.049,2.428.153c1.695.343,2.245,1.444,2.337,3.059.123,1.725.123,3.223.123,11.359v9.42c0,4.918,0,9.157-.276,11.4-.214,1.541-.471,2.722-1.56,2.936a7.649,7.649,0,0,1-1.211.2c-.263.012-.465.012-.709.012h-.857v.961h15.635v-.961h-.856a9.681,9.681,0,0,1-1.927-.214,1.432,1.432,0,0,1-1.034-.85,3.1,3.1,0,0,1-.14-.331,7.433,7.433,0,0,1-.38-1.755,55.229,55.229,0,0,1-.293-6.1v-6.1a.374.374,0,0,1,.311-.428.383.383,0,0,1,.117,0l6.588-.007a1.133,1.133,0,0,1,.96.367c.7.808,3.23,4.558,5.371,7.494,2.753,3.78,4.679,6.208,6.759,7.524.184.122.379.226.563.336,1.4.746,2.722,1.022,5.719,1.022h5.732V249.3Zm-22.425-19.091c-2.863,1.065-7.6.624-8.607.41a2.137,2.137,0,0,1-.324-.092c-.379-.153-.489-.367-.489-.966V213.328c0-.428.11-.642.489-.752a30.986,30.986,0,0,1,5.23-.2c2.168.075,4.951.407,6.825,1.551a5.982,5.982,0,0,1,2.6,4.469C330.273,223.309,328.922,228.348,323.865,230.223Z"/></svg>