<?xml version="1.0" ?><svg height="187px" version="1.1" viewBox="0 0 156 187" width="156px" xmlns="http://www.w3.org/2000/svg" xmlns:sketch="http://www.bohemiancoding.com/sketch/ns" xmlns:xlink="http://www.w3.org/1999/xlink"><title/><desc/><defs/><g fill="none" fill-rule="evenodd" id="Page-1" stroke="none" stroke-width="1"><g id="star-wars-copy" transform="translate(-648.000000, -2034.000000)"><g id="qui-gon-jinn" transform="translate(647.000000, 2034.000000)"><path d="M7.5016,90.5584 L0.9976,182.3224 L157.0036,182.3224 L150.4996,90.5584 L7.5016,90.5584 Z" fill="#7C4B30" id="Fill-1"/><path d="M19,54.5572 L19,144.2092 C19,151.9552 54.742,182.0872 54.742,182.0872 L54.742,182.0872 C58.81,184.9912 99.19,184.9912 103.258,182.0872 L103.258,182.0872 C103.258,182.0872 139,151.9552 139,144.2092 L139,144.2092 L139,54.5572 C139,25.7632 112.138,18.5572 79.006,18.5572 L79.006,18.5572 C45.862,18.5572 19,25.7632 19,54.5572 L19,54.5572 Z" id="Clip-3"/><path d="M7,90.5572 L7,108.5572 C7,115.1572 12.4,120.5572 19,120.5572 L19,120.5572 C25.6,120.5572 31,115.1572 31,108.5572 L31,108.5572 L31,90.5572 C31,83.9572 25.6,78.5572 19,78.5572 L19,78.5572 C12.4,78.5572 7,83.9572 7,90.5572 L7,90.5572 Z" id="Clip-6"/><path d="M127,90.5572 L127,108.5572 C127,115.1572 132.4,120.5572 139,120.5572 L139,120.5572 C145.6,120.5572 151,115.1572 151,108.5572 L151,108.5572 L151,90.5572 C151,83.9572 145.6,78.5572 139,78.5572 L139,78.5572 C132.4,78.5572 127,83.9572 127,90.5572 L127,90.5572 Z" id="Clip-9"/><path d="M49,96.2632 C49,99.5812 51.682,102.2632 55,102.2632 L55,102.2632 C58.318,102.2632 61,99.5812 61,96.2632 L61,96.2632 C61,92.9452 58.318,90.2632 55,90.2632 L55,90.2632 C51.682,90.2632 49,92.9452 49,96.2632 L49,96.2632 Z" id="Clip-12"/><path d="M97,96.2632 C97,99.5812 99.682,102.2632 103,102.2632 L103,102.2632 C106.318,102.2632 109,99.5812 109,96.2632 L109,96.2632 C109,92.9452 106.318,90.2632 103,90.2632 L103,90.2632 C99.682,90.2632 97,92.9452 97,96.2632 L97,96.2632 Z" id="Clip-15"/><path d="M73,93.2692 L73,117.5572 C73,119.2192 74.344,120.5572 76,120.5572 L76,120.5572 C77.656,120.5572 79,119.2192 79,117.5572 L79,117.5572 L79,93.2692 C79,91.6132 77.656,90.2692 76,90.2692 L76,90.2692 C74.344,90.2692 73,91.6132 73,93.2692 L73,93.2692 Z" id="Clip-18"/><path d="M43.0012,138.559 L43.0012,144.559 L72.9952,144.559 L79.0012,132.559 L85.0012,144.559 L115.0012,144.559 L115.0012,138.559 L79.0012,126.553 L43.0012,138.559 Z" fill="#8C5A3C" id="Fill-20"/><path d="M66.9988,150.5578 L79.0048,162.5578 L91.0048,150.5578 L66.9988,150.5578 Z" fill="#8C5A3C" id="Fill-21"/><path d="M127,150.5572 L97,174.5572 L61,174.5572 L31,150.5572 L19,120.5572 L19,144.2092 C19,151.9552 22.744,159.2272 29.056,163.7332 L29.056,163.7332 L61,186.5572 L97,186.5572 L128.956,163.7332 C135.262,159.2272 139,151.9552 139,144.2092 L139,144.2092 L139,120.5572 L127,150.5572 Z" id="Clip-23"/><path d="M139,78.5572 L139,54.5572 C139,25.7632 112.138,18.5572 79.006,18.5572 C45.862,18.5572 19,25.7632 19,54.5572 L19,78.5572 C12.4,78.5572 7,83.9572 7,90.5572 L7,108.5572 C7,115.1572 12.4,120.5572 19,120.5572 L19,144.2092 C19,151.9552 54.742,182.0872 54.742,182.0872 C58.81,184.9912 99.19,184.9912 103.258,182.0872 C103.258,182.0872 139,151.9552 139,144.2092 L139,120.5572 C145.6,120.5572 151,115.1572 151,108.5572 L151,90.5572 C151,83.9572 145.6,78.5572 139,78.5572 L139,78.5572 Z" fill="#F0B496" id="Clip-26"/><path d="M49,96.2632 C49,99.5812 51.682,102.2632 55,102.2632 L55,102.2632 C58.318,102.2632 61,99.5812 61,96.2632 L61,96.2632 C61,92.9452 58.318,90.2632 55,90.2632 L55,90.2632 C51.682,90.2632 49,92.9452 49,96.2632 L49,96.2632 Z" fill="#323232" id="Clip-35"/><path d="M97,96.2632 C97,99.5812 99.682,102.2632 103,102.2632 L103,102.2632 C106.318,102.2632 109,99.5812 109,96.2632 L109,96.2632 C109,92.9452 106.318,90.2632 103,90.2632 L103,90.2632 C99.682,90.2632 97,92.9452 97,96.2632 L97,96.2632 Z" fill="#323232" id="Clip-38"/><path d="M73,93.2692 L73,117.5572 C73,119.2192 74.344,120.5572 76,120.5572 L76,120.5572 C77.656,120.5572 79,119.2192 79,117.5572 L79,117.5572 L79,93.2692 C79,91.6132 77.656,90.2692 76,90.2692 L76,90.2692 C74.344,90.2692 73,91.6132 73,93.2692 L73,93.2692 Z" fill="#E99977" id="Clip-41"/><path d="M43.0012,138.559 L43.0012,144.559 L72.9952,144.559 L79.0012,132.559 L85.0012,144.559 L115.0012,144.559 L115.0012,138.559 L79.0012,126.553 L43.0012,138.559 Z" fill="#8C5A3C" id="Fill-43"/><path d="M66.9988,150.5578 L79.0048,162.5578 L91.0048,150.5578 L66.9988,150.5578 Z" fill="#8C5A3C" id="Fill-44"/><path d="M127,150.5572 L97,174.5572 L61,174.5572 L31,150.5572 L19,120.5572 L19,144.2092 C19,151.9552 22.744,159.2272 29.056,163.7332 L29.056,163.7332 L61,186.5572 L97,186.5572 L128.956,163.7332 C135.262,159.2272 139,151.9552 139,144.2092 L139,144.2092 L139,120.5572 L127,150.5572 Z" fill="#8C5A3C" id="Clip-46"/><path d="M151.0006,84.5566 C151.0006,65.7346 143.5246,35.0806 130.2166,21.7726 C116.6326,8.1886 98.2126,0.5566 79.0006,0.5566 C59.7886,0.5566 41.3686,8.1886 27.7846,21.7726 C14.4766,35.0806 7.0006,65.7346 7.0006,84.5566 L25.0006,96.5566 L25.0006,60.5566 L37.0006,30.5566 L61.0006,42.5566 L97.0006,42.5566 L121.0006,30.5566 L133.0006,60.5566 L133.0006,96.5566 L151.0006,84.5566 Z" fill="#8C5A3C" id="Fill-48"/></g></g></g></svg>