<svg id="Layer_1" data-name="Layer 1" xmlns="http://www.w3.org/2000/svg" width="64" height="64" viewBox="0 0 64 64">
    <defs>
        <style>
            .cls-1 {
                fill: #fff;
            }

            .cls-2 {
                fill: #1d1d1b;
            }

            .cls-3 {
                fill: #e6e4da;
            }

            .cls-4 {
                fill: #ddc07c;
            }

            .cls-5 {
                fill: #92a0d1;
            }

            .cls-6 {
                fill: #e7413e;
            }
        </style>
    </defs>
    <title>Millennium-Falcon</title>
    <g id="Millennium-Falcon">
        <path class="cls-1"
            d="M31.35,62.55c-9.79,0-16.68-4.59-19-7a2.8,2.8,0,0,1-1-2A5.74,5.74,0,0,1,11.77,52a14.37,14.37,0,0,1-2.67-3.62L8.2,46.62A3.4,3.4,0,0,1,6.07,44.5c-.27-.69-1.59-7.85-.85-9.13a2.2,2.2,0,0,1,1.36-1,74,74,0,0,1,4.67-15C14,13.11,19.81,2.81,21.77,2c.23-.09.92-.37,4.49-.37,3.21,0,4.29.1,4.78,1.27.14.32.24.56.55,7.72h.21c-.13-8.11.18-8.27,1.13-8.77.27-.14.77-.4,5.75-.4,3.85,0,4.18.24,4.6.54s.83.59,6.26,12.31a2.48,2.48,0,0,1,.73-.21c.41,0,1.67-.14,2.72-.14s2.2,0,2.81,1c.39.62,2.94,7.37,3.1,8,.34,1.24-.16,11-.27,11.52a2.77,2.77,0,0,1-1.32,1.7A16.81,16.81,0,0,1,56,45.17,22,22,0,0,1,52.27,51a8.19,8.19,0,0,1-.18,2.24c-.39,1.25-8.14,9.15-20.45,9.27Z" />
        <path class="cls-2"
            d="M8.05,35.76A71,71,0,0,1,12.8,20.09c3.59-8.2,8.8-16.18,9.61-16.51s6.93-.33,7.06,0,.49,8.87.49,8.87a11.68,11.68,0,0,1,3.56.05s-.18-8.94.19-9.13,8.06-.35,8.56,0,6.65,13.68,6.65,13.68.91-1.21,1.54-1.28,3.68-.26,3.88,0,2.7,6.76,2.9,7.51S57.08,33.52,57,34s-1.54,1.22-1.54,1.22a15.4,15.4,0,0,1-.94,9.21c-2.1,4.48-3.94,5.89-3.94,5.89a12.18,12.18,0,0,1-.08,2.44c-.18.57-7.28,8-18.84,8.07s-18.57-6.5-18.53-7.25a7.67,7.67,0,0,1,.71-2.08,12.19,12.19,0,0,1-3.21-3.94L9.3,45a1.54,1.54,0,0,1-1.65-1.15,34.51,34.51,0,0,1-1-7.67C6.87,35.9,7.74,35.95,8.05,35.76Z" />
        <path class="cls-3"
            d="M15.05,20s3.41-7.57,5-10.23,2.72-4.49,3.16-4.56,4.75,0,4.82.28,0,7.31,0,7.31-1.23.9-1.22,1.52V15A65.54,65.54,0,0,0,15.05,20Z" />
        <path class="cls-3"
            d="M35.82,5.5c.39-.41,4.87-.41,5.31,0s7,14.42,7.11,14.67a8.15,8.15,0,0,1-.1,1.44A14,14,0,0,0,41,16.52c-4.4-1.16-5.4-1-5.4-1.14S35.7,5.63,35.82,5.5Z" />
        <path class="cls-3"
            d="M29.06,14.14a6.69,6.69,0,0,1,2.74-.43,4,4,0,0,1,2.32.52c.13.25.07,15.85-.24,15.91s-4,.39-4.13,0S28.82,14.46,29.06,14.14Z" />
        <path class="cls-3"
            d="M51,18s1.68-.35,2.06,0a50.19,50.19,0,0,1,2.44,6.08c0,.19-.3,10-.3,10S39.6,37.74,39.41,37.5s-.79-2-.48-2.18,10-7.89,10.21-8.27.64-5.26.76-5.64S51,18,51,18Z" />
        <path class="cls-4"
            d="M27.18,16.85c.15,0,.83,12,.83,12l-1.24-1.73s-.45.34-.41.51,1.77,2.88,1.77,3-.39.36-.61.55a2.15,2.15,0,0,1-.31.24,23.77,23.77,0,0,0-2.08-2.71c-.19,0-.47.3-.43.36s2,2.69,1.91,2.8-.86.83-.86.83a15.42,15.42,0,0,0-1.69-2.22c-.21,0-.49.36-.45.45s1.69,2.38,1.65,2.49a8,8,0,0,1-.53.7,23,23,0,0,0-1.88-2.3c-.15,0-.49.41-.43.51s1.82,2.34,1.82,2.4-.4.76-.44.9l-.06.21a38.62,38.62,0,0,0-2.52-3.16c-.14,0-.45.24-.41.36s2.58,3.76,2.58,3.76a8.83,8.83,0,0,1-1.1.11c-.06,0-2.69-3.36-2.76-3.34S19,34,19,34.08s2.31,3,2.23,3a10.5,10.5,0,0,1-1.83.1c-.17-.1-1.65-2.32-1.76-2.32s-.49.3-.45.4,1.21,2,1.14,2-3.88-.32-5.8-.57-2.91-.61-2.89-.84,1.09-7.19,3.11-10.19,6-5.41,8.37-6.55A37.68,37.68,0,0,1,27.18,16.85Z" />
        <path class="cls-3"
            d="M31.53,31.47c3.47-.05,6.21,2.75,6.39,7s-2.84,6.59-6.55,6.76a6,6,0,0,1-6.05-5.54C25.15,37.25,25.41,31.56,31.53,31.47Z" />
        <path class="cls-2" d="M31.1,33c2.5-.53,4,2.51,3.34,4.59s-4.92,2.38-5.65.3S29.14,33.45,31.1,33Z" />
        <path class="cls-4"
            d="M31.22,33.88c1.83-.39,2.94,1.84,2.45,3.36s-3.6,1.74-4.14.22A2.7,2.7,0,0,1,31.22,33.88Z" />
        <path class="cls-2"
            d="M17.36,24.38a4.2,4.2,0,0,1,5.16,1.46A3.46,3.46,0,0,1,20.65,31c-2.39.92-5,0-5.39-2A3.85,3.85,0,0,1,17.36,24.38Z" />
        <path class="cls-3"
            d="M17.73,25.08a3.31,3.31,0,0,1,4.06,1.15,2.73,2.73,0,0,1-1.47,4.06c-1.88.73-3.91,0-4.24-1.59A3,3,0,0,1,17.73,25.08Z" />
        <path class="cls-4"
            d="M43.17,19.36a27.67,27.67,0,0,0-7.36-2.41c-.12.25-.41,13.89-.41,13.89a7.07,7.07,0,0,1,1.51.72,7.21,7.21,0,0,1,1.55,2.53l3.86-3a3.33,3.33,0,0,1-3.47-2.36A3.85,3.85,0,0,1,41,24.12a4.2,4.2,0,0,1,5.16,1.46,3.68,3.68,0,0,1,.52,2.13c.3-.24.5-.4.51-.43.12-.19.69-2.89.69-2.89A11.25,11.25,0,0,0,43.17,19.36Z" />
        <path class="cls-3"
            d="M41.32,24.83a3,3,0,0,0-1.65,3.62c.3,1.46,2.09,2.19,3.86,1.7l2-1.57a2.76,2.76,0,0,0-.16-2.6A3.31,3.31,0,0,0,41.32,24.83Z" />
        <path class="cls-3"
            d="M8.68,37.4c1-.14,5.55,1,9.06,1.13s5.91.07,5.91.16.13,1.62.13,1.62S9.83,43.38,9.67,43.26,8.15,37.47,8.68,37.4Z" />
        <path class="cls-3"
            d="M39.5,39c.31,0,14.38-2.88,14.48-2.64a29,29,0,0,1,0,3.56,3.88,3.88,0,0,1-.56,1.89s-14-1-14-1.09S39.5,39,39.5,39Z" />
        <path class="cls-3"
            d="M39.31,41.81c.16,0,13.59,1.38,13.57,1.57s-1,2.11-1.35,2.78a5.23,5.23,0,0,1-.91,1.17,12.44,12.44,0,0,0-.67-2.46c-.19,0-.84.17-.74.42s.68,2.86.69,3-.7.83-.7.83a1.41,1.41,0,0,1-.32-.31c-.07-.12-.9-4.33-1-4.39s-.82-.3-.81,0,.76,3.7.64,3.68S46,46.87,46,46.87s0-2.69-.31-2.87-.79-.36-.79-.23.11,2.34.11,2.34l-1.24-1s.13-1.38-.06-1.5-1-.39-1-.29-.17,1-.17,1-3.29-1.87-3.32-2A1.65,1.65,0,0,1,39.31,41.81Z" />
        <path class="cls-3"
            d="M14.76,50.59a20.13,20.13,0,0,1-2.6-3.48c-.65-1.36-1.08-2.54-.87-2.64S24,41.59,24.11,41.68a12.85,12.85,0,0,1,.59,1.18A15.14,15.14,0,0,1,23,44.39c0-.12-.84-1.45-1-1.42s-.47.17-.43.29.81,1.58.81,1.58-.77.8-.86.67A25.68,25.68,0,0,0,20,43.3c-.12,0-.46.42-.46.42a15.25,15.25,0,0,1,1.2,2.35,5.46,5.46,0,0,1-1,.64,17.07,17.07,0,0,0-1.93-2.59c-.25,0-.81.17-.77.45s1.71,2.72,1.62,2.78l-.8.55s-2-3.12-2.16-3.11a5.06,5.06,0,0,0-.8.39S17,48.51,17,48.61a7.81,7.81,0,0,1-.71.58,38.15,38.15,0,0,0-2.67-3.7c-.15.1-.68.3-.62.42s2.46,4,2.46,4Z" />
        <path class="cls-4"
            d="M25.77,44.53s1.61,2.41,5.7,2.2A9.77,9.77,0,0,0,38,43.5l7.09,4.3c2.06,1.24,3.31,2.84,3.29,3.31S42.34,59,31.13,59.45,15.32,53.77,15.4,53,25.17,44.26,25.77,44.53Z" />
        <path class="cls-2"
            d="M31.36,47.66a2.46,2.46,0,0,1,2.35,3.42c-.77,2.08-4.15,1.9-5,.23A2.64,2.64,0,0,1,31.36,47.66Z" />
        <path class="cls-5"
            d="M31.31,48.46a1.67,1.67,0,0,1,1.59,2.32c-.52,1.41-2.81,1.29-3.37.15A1.79,1.79,0,0,1,31.31,48.46Z" />
        <path class="cls-2"
            d="M31.32,53.76a2,2,0,0,1,1.9,2.77c-.62,1.68-3.36,1.54-4,.18A2.14,2.14,0,0,1,31.32,53.76Z" />
        <path class="cls-6"
            d="M31.27,54.54a1.21,1.21,0,0,1,1.16,1.69,1.43,1.43,0,0,1-2.45.11A1.3,1.3,0,0,1,31.27,54.54Z" />
        <path class="cls-2"
            d="M38.52,46.58a2,2,0,0,1,1.9,2.77c-.62,1.68-3.36,1.54-4,.18A2.14,2.14,0,0,1,38.52,46.58Z" />
        <path class="cls-3"
            d="M38.47,47.37a1.21,1.21,0,0,1,1.16,1.69,1.43,1.43,0,0,1-2.45.11A1.3,1.3,0,0,1,38.47,47.37Z" />
        <path class="cls-2"
            d="M25.27,46.75a2,2,0,0,1,1.9,2.77c-.62,1.68-3.36,1.54-4,.18A2.14,2.14,0,0,1,25.27,46.75Z" />
        <path class="cls-3"
            d="M25.22,47.54a1.21,1.21,0,0,1,1.16,1.69,1.43,1.43,0,0,1-2.45.11A1.3,1.3,0,0,1,25.22,47.54Z" />
        <path class="cls-2" d="M23.21,51.7a2,2,0,0,1,1.9,2.77c-.62,1.68-3.36,1.54-4,.18A2.14,2.14,0,0,1,23.21,51.7Z" />
        <path class="cls-3"
            d="M23.16,52.49a1.21,1.21,0,0,1,1.16,1.69,1.43,1.43,0,0,1-2.45.11A1.3,1.3,0,0,1,23.16,52.49Z" />
        <path class="cls-2"
            d="M40.37,51.45a2,2,0,0,1,1.9,2.77c-.62,1.68-3.36,1.54-4,.18A2.14,2.14,0,0,1,40.37,51.45Z" />
        <path class="cls-3"
            d="M40.32,52.24a1.21,1.21,0,0,1,1.16,1.69A1.43,1.43,0,0,1,39,54,1.3,1.3,0,0,1,40.32,52.24Z" />
        <path class="cls-2"
            d="M18.81,21.91a7.47,7.47,0,0,1,2.5-1.61c2-.95,2.23-1.14,2.32-1a2.28,2.28,0,0,1,.23.75c0,.12-1.55.5-2.6,1.18a4.46,4.46,0,0,0-1.32,1.12S18.84,22.1,18.81,21.91Z" />
        <path class="cls-2"
            d="M22.47,9.55a2.32,2.32,0,0,1,2.75,2.95c-.52,2-3.49,2.07-4.23,1.05A2.65,2.65,0,0,1,22.47,9.55Z" />
        <path class="cls-4"
            d="M22.59,10.19a1.67,1.67,0,0,1,2,2.12,1.91,1.91,0,0,1-3.05.76A1.91,1.91,0,0,1,22.59,10.19Z" />
        <path class="cls-2"
            d="M39.68,9.33a2.32,2.32,0,0,1,2.75,2.95c-.52,2-3.49,2.07-4.23,1.05A2.65,2.65,0,0,1,39.68,9.33Z" />
        <path class="cls-4" d="M39.81,10a1.67,1.67,0,0,1,2,2.12,1.91,1.91,0,0,1-3.05.76A1.91,1.91,0,0,1,39.81,10Z" />
        <path class="cls-2"
            d="M50.79,22.2a1,1,0,0,1,.78.14c.07.12-.27,3.76-.27,3.76s-1,.11-1.06,0A33.32,33.32,0,0,1,50.79,22.2Z" />
    </g>
</svg>