<?xml version="1.0" ?><svg height="204px" version="1.1" viewBox="0 0 168 204" width="168px" xmlns="http://www.w3.org/2000/svg" xmlns:sketch="http://www.bohemiancoding.com/sketch/ns" xmlns:xlink="http://www.w3.org/1999/xlink"><title/><desc/><defs/><g fill="none" fill-rule="evenodd" id="Page-1" stroke="none" stroke-width="1"><g id="star-wars-copy" transform="translate(-276.000000, -1636.000000)"><g id="greedo" transform="translate(276.000000, 1635.000000)"><path d="M144,84.3334 L144,83.3974 C144,47.8354 117.138,18.9994 84,18.9994 C50.862,18.9994 24,47.8354 24,83.3974 L24,84.3334 L0,54.9994 L0,120.9994 C0,130.9414 8.058,138.9994 18,138.9994 C22.728,138.9994 26.994,137.1394 30.204,134.1634 C30.648,134.9014 31.014,135.6874 31.506,136.4074 L62.526,181.9054 C58.938,184.0954 56.52,188.0134 56.52,192.5194 C56.52,199.4014 62.118,204.9994 69,204.9994 L99,204.9994 C105.882,204.9994 111.48,199.4014 111.48,192.5194 C111.48,188.0134 109.062,184.0954 105.474,181.9054 L136.494,136.4074 C136.986,135.6874 137.352,134.9014 137.796,134.1634 C141.006,137.1394 145.272,138.9994 150,138.9994 C159.942,138.9994 168,130.9414 168,120.9994 L168,54.9994 L144,84.3334 Z" fill="#8CBE3C" id="Fill-1"/><path d="M78,112 C78,123.598 68.598,133 57,133 C45.402,133 36,123.598 36,112 C36,100.402 45.402,91 57,91 C68.598,91 78,100.402 78,112" fill="#323232" id="Fill-3"/><path d="M132,112 C132,123.598 122.598,133 111,133 C99.402,133 90,123.598 90,112 C90,100.402 99.402,91 111,91 C122.598,91 132,100.402 132,112" fill="#323232" id="Fill-5"/><path d="M63,46 C63,47.656 61.656,49 60,49 C58.344,49 57,47.656 57,46 C57,44.344 58.344,43 60,43 C61.656,43 63,44.344 63,46" fill="#46A046" id="Fill-7"/><path d="M48,58 C48,59.656 46.656,61 45,61 C43.344,61 42,59.656 42,58 C42,56.344 43.344,55 45,55 C46.656,55 48,56.344 48,58" fill="#46A046" id="Fill-9"/><path d="M126,58 C126,59.656 124.656,61 123,61 C121.344,61 120,59.656 120,58 C120,56.344 121.344,55 123,55 C124.656,55 126,56.344 126,58" fill="#46A046" id="Fill-11"/><path d="M75,40 C75,41.656 73.656,43 72,43 C70.344,43 69,41.656 69,40 C69,38.344 70.344,37 72,37 C73.656,37 75,38.344 75,40" fill="#46A046" id="Fill-13"/><path d="M87,52 C87,53.656 85.656,55 84,55 C82.344,55 81,53.656 81,52 C81,50.344 82.344,49 84,49 C85.656,49 87,50.344 87,52" fill="#46A046" id="Fill-15"/><path d="M99,40 C99,41.656 97.656,43 96,43 C94.344,43 93,41.656 93,40 C93,38.344 94.344,37 96,37 C97.656,37 99,38.344 99,40" fill="#46A046" id="Fill-17"/><path d="M111,46 C111,47.656 109.656,49 108,49 C106.344,49 105,47.656 105,46 C105,44.344 106.344,43 108,43 C109.656,43 111,44.344 111,46" fill="#46A046" id="Fill-19"/><path d="M24,43 L24,43 C17.4,43 12,37.6 12,31 L12,13 C12,6.4 17.4,1 24,1 L24,1 C30.6,1 36,6.4 36,13 L36,31 C36,37.6 30.6,43 24,43" fill="#46A046" id="Fill-21"/><path d="M144,43 L144,43 C150.6,43 156,37.6 156,31 L156,13 C156,6.4 150.6,1 144,1 L144,1 C137.4,1 132,6.4 132,13 L132,31 C132,37.6 137.4,43 144,43" fill="#46A046" id="Fill-23"/><path d="M66,7 C64.35,7 63,8.35 63,10 L63,40 C63,41.65 64.35,43 66,43 C67.65,43 69,41.65 69,40 L69,10 C69,8.35 67.65,7 66,7" fill="#8CBE3C" id="Fill-25"/><path d="M78,1 C76.35,1 75,2.35 75,4 L75,34 C75,35.65 76.35,37 78,37 C79.65,37 81,35.65 81,34 L81,4 C81,2.35 79.65,1 78,1" fill="#8CBE3C" id="Fill-27"/><path d="M90,1 C88.35,1 87,2.35 87,4 L87,34 C87,35.65 88.35,37 90,37 C91.65,37 93,35.65 93,34 L93,4 C93,2.35 91.65,1 90,1" fill="#8CBE3C" id="Fill-29"/><path d="M102,7 C100.35,7 99,8.35 99,10 L99,40 C99,41.65 100.35,43 102,43 C103.65,43 105,41.65 105,40 L105,10 C105,8.35 103.65,7 102,7" fill="#8CBE3C" id="Fill-31"/><path d="M37.4238,16.5214 L36.0018,16.5214 L36.0018,12.9994 C36.0018,6.3994 30.6018,0.9994 24.0018,0.9994 C17.4018,0.9994 12.0018,6.3994 12.0018,12.9994 L12.0018,30.9994 C12.0018,37.5994 17.4018,42.9994 24.0018,42.9994 C30.6018,42.9994 36.0018,37.5994 36.0018,30.9994 L36.0018,27.4774 L37.4238,27.4774 C39.1158,27.4774 41.4378,31.6594 42.9738,34.4254 L49.2138,45.6574 L58.7898,40.3414 L52.3998,28.8454 C49.6818,23.9374 45.5598,16.5214 37.4238,16.5214" fill="#8CBE3C" id="Fill-33"/><path d="M144,1 C137.4,1 132,6.4 132,13 L132,16.522 L130.578,16.522 C122.436,16.522 118.32,23.938 115.452,29.11 L109.212,40.342 L118.788,45.658 L125.172,34.162 C126.564,31.66 128.88,27.478 130.578,27.478 L132,27.478 L132,31 C132,37.6 137.4,43 144,43 C150.6,43 156,37.6 156,31 L156,13 C156,6.4 150.6,1 144,1" fill="#8CBE3C" id="Fill-36"/><path d="M24,7 C27.306,7 30,9.694 30,13 L30,31 C30,34.306 27.306,37 24,37 C20.694,37 18,34.306 18,31 L18,13 C18,9.694 20.694,7 24,7" fill="#46A046" id="Fill-38"/><path d="M144,7 C147.306,7 150,9.694 150,13 L150,31 C150,34.306 147.306,37 144,37 C140.694,37 138,34.306 138,31 L138,13 C138,9.694 140.694,7 144,7" fill="#46A046" id="Fill-40"/><path d="M99,186.5194 L69,186.5194 C65.688,186.5194 63,189.2074 63,192.5194 L63,192.5194 C63,195.8314 65.688,198.5194 69,198.5194 L99,198.5194 C102.312,198.5194 105,195.8314 105,192.5194 L105,192.5194 C105,189.2074 102.312,186.5194 99,186.5194" fill="#323232" id="Fill-42"/></g></g></g></svg>